<svg id="Group_2" data-name="Group 2" xmlns="http://www.w3.org/2000/svg" xmlns:xlink="http://www.w3.org/1999/xlink" width="1643.342" height="222.139" viewBox="0 0 1643.342 222.139">
  <defs>
    <clipPath id="clip-path">
      <rect id="Rectangle_1" data-name="Rectangle 1" width="1643.342" height="222.139" fill="none"/>
    </clipPath>
  </defs>
  <g id="Group_1" data-name="Group 1" clip-path="url(#clip-path)">
    <path id="Path_1" data-name="Path 1" d="M204.427,44.072,187.938,56.728a90.083,90.083,0,0,0-32.771-26.94,95.86,95.86,0,0,0-42.008-9.169A92.856,92.856,0,0,0,66.815,32.63,86.211,86.211,0,0,0,33.763,64.9q-11.724,20.26-11.723,45.56,0,38.244,26.228,63.832t66.172,25.585q43.928,0,73.5-34.4l16.489,12.508a105.418,105.418,0,0,1-39.025,30.78q-23.379,10.879-52.243,10.872-54.873,0-86.575-36.531Q.007,152.254,0,108.615,0,62.7,32.2,31.35T112.878,0q29.286,0,52.879,11.59a102.663,102.663,0,0,1,38.67,32.482" fill="#92c13b"/>
    <path id="Path_2" data-name="Path 2" d="M213.84,219.636,243.777,10.517h3.4l85.013,171.589L416.38,10.517h3.352l30.092,209.119h-20.5L408.668,70.086l-73.942,149.55H329.39L254.567,68.947,234.03,219.636Z" fill="#92c13b"/>
    <path id="Path_3" data-name="Path 3" d="M669.628,40.376,653.42,55.733a123.721,123.721,0,0,0-38.307-26.088q-20.826-8.881-40.586-8.889a96.859,96.859,0,0,0-46.848,12.086,87.794,87.794,0,0,0-34.473,32.771,84.663,84.663,0,0,0-12.226,43.71,86.356,86.356,0,0,0,12.655,44.849A89.875,89.875,0,0,0,528.6,187.579a100.616,100.616,0,0,0,48.9,12.16q32.273,0,54.589-18.2t26.443-47.195H591.867v-20.19h90.128q-.277,48.48-28.79,76.977-28.5,28.507-76.266,28.508-58,0-91.83-39.521-26.021-30.417-26.021-70.367a107.928,107.928,0,0,1,14.927-55.3,106.26,106.26,0,0,1,40.942-40.023Q540.979.008,573.816,0A130.892,130.892,0,0,1,623.854,9.6q23.457,9.6,45.774,30.78" fill="#92c13b"/>
    <path id="Path_4" data-name="Path 4" d="M711.547,114.083h10.571v44.19h53.736v-44.19h10.571V219.5H775.854V168.552H722.118V219.5H711.547Z" fill="#ffffff"/>
    <path id="Path_5" data-name="Path 5" d="M918.392,166.791c0,30.976-24.226,55.348-55.5,55.348-32.445,0-55.642-25.4-55.642-54.909,0-31.418,24.371-55.79,54.763-55.79,32,0,56.377,23.93,56.377,55.351m-100.13.439a44.08,44.08,0,0,0,44.34,44.632c24.665,0,44.778-18.793,44.778-45.219,0-26.721-21.435-44.926-44.778-44.926-23.2,0-44.34,18.5-44.34,45.513" fill="#ffffff"/>
    <path id="Path_6" data-name="Path 6" d="M934.664,219.5l14.973-105.413H951.4l42.869,86.473,42.431-86.473h1.762L1053.436,219.5h-10.277l-10.277-75.463L995.591,219.5h-2.643l-37.878-76.05L944.939,219.5Z" fill="#ffffff"/>
    <path id="Path_7" data-name="Path 7" d="M1074.4,114.083H1134.6V124.36h-49.623V157.4H1134.6v10.274h-49.623v41.55H1134.6V219.5H1074.4Z" fill="#ffffff"/>
    <path id="Path_8" data-name="Path 8" d="M1193.738,114.083h10.571v95.136h40.521V219.5h-51.092Z" fill="#ffffff"/>
    <path id="Path_9" data-name="Path 9" d="M1359.031,166.791c0,30.976-24.223,55.348-55.493,55.348-32.447,0-55.644-25.4-55.644-54.909,0-31.418,24.371-55.79,54.761-55.79,32.007,0,56.376,23.93,56.376,55.351m-100.125.439a44.079,44.079,0,0,0,44.336,44.632c24.665,0,44.779-18.793,44.779-45.219,0-26.721-21.434-44.926-44.779-44.926-23.195,0-44.336,18.5-44.336,45.513" fill="#ffffff"/>
    <path id="Path_10" data-name="Path 10" d="M1414.06,114.083,1463.241,219.5h-11.306l-16.589-34.648h-45.512L1373.391,219.5h-11.746l49.917-105.413Zm-1.323,22.316-18.205,38.172h36.116Z" fill="#ffffff"/>
    <path id="Path_11" data-name="Path 11" d="M1479.81,219.5V114.083h2.2l69.884,80.748V114.083h10.571V219.5h-2.349l-69.736-79.719V219.5Z" fill="#ffffff"/>
    <path id="Path_12" data-name="Path 12" d="M1633.213,135.225c-5.727-7.489-10.719-12.92-19.38-12.92-9.1,0-14.242,6.46-14.242,13.362,0,5.724,3.376,11.745,9.4,16.295,19.819,14.681,34.355,24.813,34.355,41.843,0,14.827-12.478,28.334-29.657,28.334-14.533,0-24.077-8.076-31.86-22.316l8.957-5.431c6.312,11.6,13.947,17.47,22.023,17.47,11.012,0,19.525-8.073,19.525-17.911,0-11.6-10.862-18.205-34.794-37.585-4.992-3.965-8.955-12.332-8.955-20.26,0-14.534,11.3-24.665,25.544-24.665,12.919,0,20.7,7.782,27.6,17.178Z" fill="#ffffff"/>
  </g>
</svg>
