<svg width="763" height="760" viewBox="0 0 763 760" fill="none" xmlns="http://www.w3.org/2000/svg">
<circle cx="392.5" cy="389.5" r="370.5" fill="#C2F8F2"/>
<circle cx="370.5" cy="370.5" r="370.5" fill="#EF4444"/>
<path d="M371.472 309.901C344.749 307.136 285.221 296.079 260.893 273.963C252.6 264.748 231.037 251.847 211.133 273.963C189.939 292.393 148.657 345.839 153.08 412.186C142.944 351.368 135.941 231.943 189.018 240.79C179.803 238.025 161.925 225.309 164.136 196.559C165.059 199.323 171.326 207.064 189.018 215.91C186.253 197.48 185.699 155.092 205.603 132.976C206.525 146.798 211.685 177.207 224.954 188.265C228.64 171.679 236.012 136.294 236.012 127.447C240.62 146.798 258.128 182.736 291.301 171.679C309.717 159.276 338.678 145.218 371.472 138.47" stroke="white" stroke-width="8.29336"/>
<path fill-rule="evenodd" clip-rule="evenodd" d="M371.471 454.692C364.099 454.692 349.355 465.197 349.355 507.217C344.747 524.725 326.133 560.847 288.537 565.27H224.954C213.897 561.584 190.122 547.578 183.488 521.039C183.488 507.217 179.617 479.019 164.137 476.808H161.372V435.341C166.901 431.655 184.041 424.283 208.368 424.283C237.855 417.833 305.677 410.461 341.062 432.576L343.826 435.341H371.471V454.692ZM299.595 551.448C315.076 549.236 328.161 530.254 332.768 521.039C337.191 507.77 338.297 476.808 338.297 462.985C336.086 436.447 311.574 429.812 299.595 429.812H233.248C206.709 432.023 192.703 452.849 189.017 462.985V496.159L194.546 521.039C198.969 538.732 218.504 552.369 227.719 556.977H294.066L299.595 551.448Z" fill="white" stroke="white" stroke-width="1.38223"/>
<path fill-rule="evenodd" clip-rule="evenodd" d="M371.749 454.692C379.121 454.692 393.864 465.197 393.864 507.217C398.472 524.725 417.086 560.847 454.682 565.27H518.265C529.323 561.584 553.097 547.578 559.732 521.039C559.732 507.217 563.602 479.019 579.083 476.808H581.847V435.341C576.318 431.655 559.179 424.283 534.851 424.283C505.364 417.833 437.543 410.461 402.158 432.577L399.393 435.341H371.749V454.692ZM443.625 551.448C428.144 549.236 415.058 530.254 410.451 521.039C406.028 507.77 404.922 476.808 404.922 462.985C407.134 436.447 431.645 429.812 443.625 429.812H509.971C536.51 432.024 550.517 452.849 554.203 462.985V496.159L548.674 521.039C544.251 538.732 524.715 552.369 515.5 556.977H449.153L443.625 551.448Z" fill="white" stroke="white" stroke-width="1.38223"/>
<path d="M370.9 138.48C410.976 133.709 498.854 137.39 528.625 192.352L540.076 209.527C541.984 199.985 544.656 177.466 540.076 163.726C548.664 174.222 564.122 204.375 557.251 241.016C570.61 241.97 597.9 253.039 600.19 289.68C600.19 294.451 600.19 308.001 600.19 324.031C600.19 336.436 598.473 368.688 591.603 398.459C590.648 361.245 569.847 287.962 494.274 292.543C467.557 297.314 408.396 307.428 385.495 309.718L370.617 309.913" stroke="white" stroke-width="8.29442"/>
</svg>
