<svg width="253" height="783" viewBox="0 0 253 783" fill="none" xmlns="http://www.w3.org/2000/svg">
  <g clip-path="url(#clip0_317_61)">
  <path d="M40.392 30.7453C39.7176 30.4355 38.9703 30.3194 38.2336 30.4101C37.497 30.5007 36.8001 30.7945 36.2209 31.2586C35.6417 31.7227 35.2031 32.3388 34.9541 33.038C34.705 33.7372 34.6554 34.4919 34.8108 35.2176L47.9783 96.4272C48.1414 97.1863 48.5218 97.8816 49.0733 98.4281C49.6247 98.9747 50.3233 99.349 51.0839 99.5053C51.8444 99.6615 52.634 99.5931 53.3563 99.3083C54.0786 99.0235 54.7024 98.5347 55.1516 97.9014L67.1847 80.9345C67.6875 80.2252 67.9455 79.3714 67.9197 78.5024C67.8938 77.6333 67.5856 76.7964 67.0415 76.1182L55.6082 61.8499C54.9448 61.022 54.6375 59.9645 54.7538 58.9101C54.8701 57.8556 55.4005 56.8905 56.2284 56.2271C57.0563 55.5638 58.1138 55.2564 59.1682 55.3727C60.2227 55.4891 61.1878 56.0195 61.8512 56.8474L73.2845 71.1156C73.8278 71.7944 74.5774 72.2777 75.4199 72.4923C76.2625 72.7069 77.152 72.6412 77.9538 72.3051L97.133 64.2562C97.849 63.9563 98.4623 63.4545 98.8981 62.812C99.3338 62.1695 99.5732 61.4141 99.587 60.638C99.6008 59.8618 99.3885 59.0983 98.9759 58.4408C98.5633 57.7832 97.9682 57.2599 97.2633 56.9347L40.3952 30.7428L40.392 30.7453Z" fill="#EF4444"/>
  </g>
  <path d="M71 75L101.446 117.831C117.917 136.41 125.803 170.166 189.291 182.37C252.779 194.574 259.666 283.677 243.695 322.597C231.05 338.829 212.649 371.06 168.327 377.162C124.006 383.264 93.2934 454.022 83.4774 488.639C77.1553 528.927 84.8755 615.371 126.402 645.881C167.929 676.39 239.203 701.032 250.183 782" stroke="#EF4444" stroke-width="3" stroke-dasharray="10 12"/>
  <defs>
  <clipPath id="clip0_317_61">
  <rect width="80" height="80" fill="white" transform="translate(0 50.0254) rotate(-38.7055)"/>
  </clipPath>
  </defs>
</svg>
