<svg width="680" height="275" viewBox="0 0 680 275" fill="none" xmlns="http://www.w3.org/2000/svg">
<path d="M89 85C103.404 99.0615 115.809 113.518 127.277 130.082C135.605 142.112 143.599 156.053 153.645 166.657C164.732 178.36 175.639 191.003 189.37 199.83C208.605 212.196 227.849 216.337 249.007 223.742C274.794 232.767 304.272 231.303 331.325 231.303C350.32 231.303 377.259 224.936 391.434 211.266C404.914 198.268 413.928 185.725 413.928 166.657C413.928 148.373 411.645 134.378 394.364 125.073C377.276 115.871 349.973 119.588 332.271 124.505C306.269 131.728 299.8 162.353 295.695 184.52C291.569 206.799 300.136 239.17 319.984 252.095C349.047 271.02 380.065 275.294 414.684 271.753C450.031 268.138 486.478 259.504 518.551 244.061C539.736 233.861 563.117 226.531 585.748 220.245C595.307 217.59 605.804 217.279 615.614 215.614C622.826 214.389 631.501 212.673 638.485 215.614C644.269 218.049 654.412 216.728 660.979 218.071C664.603 218.812 676.036 219.642 677.613 222.797" stroke="#EF4444" stroke-width="3" stroke-linecap="round" stroke-dasharray="10 10"/>
<g clip-path="url(#clip0_319_5)">
<path d="M46.9562 47.0698C46.2286 46.9234 45.4746 46.9822 44.7786 47.2398C44.0825 47.4975 43.4719 47.9436 43.0149 48.5285C42.558 49.1134 42.2728 49.8138 42.1912 50.5515C42.1096 51.2892 42.2349 52.0351 42.553 52.7057L69.443 109.247C69.7763 109.948 70.3065 110.537 70.9688 110.942C71.6312 111.348 72.3971 111.551 73.1732 111.528C73.9493 111.506 74.702 111.257 75.3394 110.814C75.9769 110.371 76.4716 109.752 76.7631 109.032L84.5721 89.7528C84.8983 88.9469 84.9531 88.0567 84.7281 87.2169C84.5031 86.3771 84.0107 85.6334 83.3252 85.0985L68.9173 73.8418C68.0813 73.1886 67.539 72.2302 67.4097 71.1772C67.2804 70.1242 67.5747 69.063 68.2279 68.2271C68.881 67.3911 69.8395 66.8488 70.8924 66.7195C71.9454 66.5903 73.0066 66.8845 73.8426 67.5377L88.2505 78.7945C88.9354 79.3301 89.7761 79.628 90.6453 79.6432C91.5146 79.6583 92.3652 79.3898 93.0682 78.8783L109.883 66.6347C110.51 66.1782 110.992 65.5488 111.268 64.8234C111.545 64.0979 111.604 63.3077 111.439 62.5492C111.274 61.7906 110.892 61.0965 110.339 60.5514C109.786 60.0063 109.087 59.6338 108.326 59.4794L46.9587 47.0667L46.9562 47.0698Z" fill="#EF4444"/>
</g>
<defs>
<clipPath id="clip0_319_5">
<rect width="80" height="80" fill="white" transform="translate(12.0806 75.1215) rotate(-51.9999)"/>
</clipPath>
</defs>
</svg>
