<svg width="760" height="1082" viewBox="0 0 760 1082" fill="none" xmlns="http://www.w3.org/2000/svg">
<g clip-path="url(#clip0_325_81)">
<path d="M256.379 161.493C255.651 161.346 254.897 161.405 254.201 161.663C253.505 161.92 252.895 162.367 252.438 162.951C251.981 163.536 251.696 164.237 251.614 164.974C251.532 165.712 251.658 166.458 251.976 167.129L278.866 223.67C279.199 224.371 279.729 224.96 280.392 225.365C281.054 225.77 281.82 225.974 282.596 225.951C283.372 225.928 284.125 225.68 284.762 225.237C285.4 224.794 285.894 224.175 286.186 223.455L293.995 204.176C294.321 203.37 294.376 202.48 294.151 201.64C293.926 200.8 293.434 200.056 292.748 199.521L278.34 188.265C277.504 187.611 276.962 186.653 276.833 185.6C276.703 184.547 276.998 183.486 277.651 182.65C278.304 181.814 279.262 181.272 280.315 181.142C281.368 181.013 282.429 181.307 283.265 181.961L297.673 193.217C298.358 193.753 299.199 194.051 300.068 194.066C300.937 194.081 301.788 193.813 302.491 193.301L319.305 181.058C319.933 180.601 320.415 179.972 320.691 179.246C320.967 178.521 321.027 177.731 320.862 176.972C320.697 176.213 320.314 175.519 319.762 174.974C319.209 174.429 318.509 174.057 317.749 173.902L256.382 161.49L256.379 161.493Z" fill="#EF4444"/>
</g>
<path fill-rule="evenodd" clip-rule="evenodd" d="M254.236 247H269.686L295 272.57V288.177L254.236 247ZM228.817 247H214.366L295 328.451V313.854L228.817 247ZM172.467 247H188.947L295 354.128V370.775L172.467 247ZM147.047 247H133.557L295 410.079V396.452L147.047 247ZM93.6373 247H108.138L286.332 427H271.831L93.6373 247ZM68.2179 247H55.6373L233.831 427H246.412L68.2179 247ZM13.848 247H30.2179L208.412 427H192.042L13.848 247ZM0 258.689V271.251L154.186 427H166.623L0 258.689ZM0 296.928L128.767 427H114.383L0 311.458V296.928ZM0 337.135L88.9637 427H75.5738L0 350.66V337.135ZM0 376.337L50.1543 427H34.7745L0 391.873V376.337ZM9.35501 427L0 417.55V427H9.35501Z" fill="#C2F8F2"/>
<path fill-rule="evenodd" clip-rule="evenodd" d="M719.236 0H734.686L760 25.5704V41.1772L719.236 0ZM693.817 0H679.366L760 81.4508V66.8542L693.817 0ZM637.467 0H653.947L760 107.128V123.775L637.467 0ZM612.047 0H598.557L760 163.079V149.452L612.047 0ZM558.637 0H573.138L751.332 180H736.831L558.637 0ZM533.218 0H520.637L698.831 180H711.412L533.218 0ZM478.848 0H495.218L673.412 180H657.042L478.848 0ZM465 11.6887V24.2512L619.186 180H631.623L465 11.6887ZM465 49.9283L593.767 180H579.383L465 64.4576V49.9283ZM465 90.1347L553.964 180H540.574L465 103.66V90.1347ZM465 129.337L515.154 180H499.774L465 144.873V129.337ZM474.355 180L465 170.55V180H474.355Z" fill="#EF4444"/>
<path fill-rule="evenodd" clip-rule="evenodd" d="M587.5 964C623.675 964 653 934.675 653 898.5C653 862.325 623.675 833 587.5 833C551.325 833 522 862.325 522 898.5C522 934.675 551.325 964 587.5 964ZM587.5 941.927C611.484 941.927 630.927 922.484 630.927 898.5C630.927 874.516 611.484 855.073 587.5 855.073C563.516 855.073 544.073 874.516 544.073 898.5C544.073 922.484 563.516 941.927 587.5 941.927Z" fill="#EF4444"/>
<path fill-rule="evenodd" clip-rule="evenodd" d="M760 338.2C759.932 338.213 759.864 338.23 759.797 338.252C756.964 339.193 754.14 340.163 751.328 341.165C750.548 341.444 750.141 342.302 750.419 343.082C750.697 343.862 751.555 344.269 752.335 343.991C754.879 343.084 757.436 342.204 760 341.347V338.2ZM292.349 194.375C292.928 193.782 293.878 193.771 294.471 194.35C295.658 195.509 296.833 196.671 297.994 197.837C298.579 198.424 298.577 199.374 297.99 199.959C297.403 200.543 296.453 200.542 295.869 199.955C294.717 198.799 293.553 197.646 292.375 196.496C291.782 195.918 291.771 194.968 292.349 194.375ZM302.768 204.898C303.372 204.331 304.321 204.361 304.888 204.965C307.159 207.385 309.382 209.829 311.56 212.305C312.108 212.927 312.047 213.875 311.425 214.422C310.804 214.969 309.856 214.909 309.308 214.287C307.151 211.836 304.95 209.416 302.7 207.018C302.133 206.414 302.164 205.464 302.768 204.898ZM315.88 219.655C316.519 219.128 317.465 219.22 317.991 219.86C320.087 222.407 322.143 224.993 324.166 227.627C324.67 228.284 324.547 229.226 323.89 229.73C323.233 230.235 322.291 230.111 321.786 229.454C319.784 226.847 317.749 224.287 315.675 221.766C315.148 221.127 315.24 220.181 315.88 219.655ZM571.718 229.842C571.733 229.013 572.416 228.354 573.245 228.368C576.887 228.433 580.494 228.71 583.976 229.252C584.794 229.379 585.355 230.146 585.227 230.965C585.1 231.783 584.333 232.344 583.514 232.216C580.188 231.698 576.72 231.431 573.192 231.368C572.363 231.353 571.704 230.67 571.718 229.842ZM564.152 230.109C564.22 230.935 563.606 231.659 562.78 231.727C559.269 232.016 555.786 232.46 552.411 233.011C551.593 233.145 550.822 232.591 550.689 231.773C550.555 230.955 551.109 230.184 551.927 230.051C555.373 229.488 558.935 229.034 562.534 228.737C563.36 228.669 564.084 229.284 564.152 230.109ZM592.567 232.805C592.856 232.029 593.719 231.634 594.496 231.923C596.232 232.57 597.904 233.317 599.498 234.175C601.457 235.23 603.237 236.348 604.853 237.53C605.522 238.019 605.668 238.957 605.179 239.626C604.69 240.294 603.751 240.44 603.083 239.951C601.586 238.857 599.924 237.811 598.076 236.816C596.613 236.029 595.067 235.337 593.449 234.735C592.672 234.445 592.277 233.582 592.567 232.805ZM543.269 233.263C543.461 234.069 542.963 234.878 542.157 235.07C540.399 235.488 538.706 235.926 537.095 236.374C535.622 236.783 534.217 237.269 532.875 237.827C532.11 238.144 531.232 237.782 530.914 237.017C530.597 236.252 530.959 235.374 531.724 235.056C533.181 234.451 534.702 233.925 536.292 233.483C537.939 233.026 539.668 232.579 541.462 232.151C542.268 231.959 543.077 232.457 543.269 233.263ZM327.983 235.249C328.657 234.767 329.594 234.921 330.076 235.595C331.035 236.933 331.987 238.285 332.933 239.651C333.999 241.19 335.057 242.759 336.114 244.344C336.573 245.034 336.387 245.965 335.697 246.424C335.008 246.884 334.077 246.697 333.617 246.008C332.567 244.432 331.519 242.879 330.466 241.359C329.53 240.006 328.587 238.667 327.638 237.342C327.155 236.669 327.31 235.732 327.983 235.249ZM525.46 240.152C525.96 240.812 525.831 241.753 525.171 242.253C522.791 244.058 520.66 246.144 518.744 248.452C518.215 249.089 517.269 249.177 516.632 248.648C515.994 248.119 515.906 247.173 516.435 246.536C518.483 244.069 520.778 241.82 523.358 239.863C524.018 239.362 524.959 239.492 525.46 240.152ZM611.534 246.277C612.234 245.834 613.161 246.042 613.604 246.742C615.889 250.352 617.36 254.29 618.296 258.518C618.475 259.327 617.964 260.128 617.155 260.307C616.346 260.486 615.546 259.975 615.366 259.167C614.49 255.206 613.133 251.607 611.069 248.347C610.626 247.647 610.834 246.72 611.534 246.277ZM340.248 253.349C340.939 252.892 341.87 253.082 342.327 253.773C344.397 256.905 346.495 260.021 348.658 263.051C349.139 263.725 348.983 264.662 348.309 265.143C347.634 265.625 346.698 265.468 346.216 264.794C344.022 261.721 341.902 258.571 339.824 255.428C339.367 254.737 339.557 253.806 340.248 253.349ZM513.094 253.852C513.815 254.26 514.069 255.175 513.662 255.896C512.191 258.499 510.894 261.252 509.741 264.099C509.43 264.867 508.556 265.238 507.788 264.927C507.02 264.616 506.649 263.741 506.96 262.973C508.154 260.026 509.505 257.153 511.05 254.42C511.457 253.699 512.373 253.445 513.094 253.852ZM618.182 269.468C619.01 269.435 619.707 270.08 619.74 270.907C619.821 272.914 619.851 274.972 619.851 277.08C619.851 278.587 619.796 280.055 619.688 281.489C619.626 282.315 618.906 282.934 618.079 282.872C617.253 282.81 616.634 282.09 616.696 281.264C616.798 279.907 616.851 278.514 616.851 277.08C616.851 275 616.821 272.983 616.743 271.027C616.71 270.199 617.354 269.501 618.182 269.468ZM505.72 270.87C506.513 271.11 506.963 271.946 506.724 272.74C505.833 275.692 505.058 278.675 504.367 281.631C504.178 282.437 503.371 282.938 502.565 282.75C501.758 282.561 501.257 281.754 501.446 280.947C502.148 277.944 502.939 274.899 503.851 271.874C504.09 271.081 504.927 270.631 505.72 270.87ZM353.351 271.719C353.985 271.185 354.931 271.267 355.464 271.901C356.668 273.333 357.897 274.719 359.157 276.049C360.556 277.526 361.952 279.017 363.348 280.51C363.913 281.115 363.881 282.064 363.276 282.63C362.671 283.196 361.722 283.164 361.156 282.558C359.76 281.065 358.371 279.581 356.979 278.112C355.674 276.734 354.405 275.304 353.168 273.832C352.635 273.198 352.716 272.252 353.351 271.719ZM617.203 288.394C618.006 288.595 618.495 289.409 618.293 290.213C617.561 293.137 616.583 295.91 615.384 298.568C615.044 299.323 614.155 299.659 613.4 299.318C612.645 298.978 612.309 298.089 612.649 297.334C613.777 294.833 614.696 292.229 615.383 289.484C615.584 288.681 616.399 288.192 617.203 288.394ZM501.267 288.907C502.08 289.065 502.611 289.853 502.453 290.666C502.152 292.213 501.867 293.732 501.593 295.216C501.321 296.685 501.105 298.202 500.945 299.758C500.861 300.582 500.124 301.182 499.3 301.097C498.476 301.013 497.876 300.276 497.961 299.452C498.128 297.82 498.355 296.223 498.643 294.67C498.918 293.181 499.205 291.652 499.508 290.094C499.666 289.281 500.453 288.749 501.267 288.907ZM369.603 289.339C370.197 288.762 371.147 288.777 371.724 289.372C374.547 292.285 377.42 295.137 380.391 297.857C381.002 298.417 381.044 299.366 380.485 299.977C379.925 300.588 378.976 300.629 378.365 300.07C375.336 297.296 372.418 294.399 369.569 291.46C368.993 290.865 369.008 289.915 369.603 289.339ZM610.687 304.208C611.379 304.663 611.572 305.593 611.118 306.285C609.539 308.69 607.778 311.015 605.861 313.296C605.328 313.93 604.381 314.012 603.747 313.479C603.113 312.946 603.031 312 603.564 311.366C605.418 309.161 607.106 306.93 608.61 304.639C609.064 303.946 609.994 303.753 610.687 304.208ZM387.567 305.88C388.061 305.215 389 305.076 389.665 305.57C391.274 306.765 392.919 307.908 394.604 308.992C396.113 309.961 397.621 310.88 399.131 311.753C399.848 312.168 400.093 313.085 399.679 313.802C399.264 314.52 398.346 314.765 397.629 314.35C396.08 313.454 394.531 312.511 392.982 311.515C391.235 310.392 389.536 309.21 387.877 307.979C387.212 307.485 387.073 306.545 387.567 305.88ZM499.097 307.521C499.925 307.495 500.618 308.144 500.644 308.972C500.742 311.994 501.022 315.083 501.485 318.184C501.607 319.003 501.042 319.766 500.222 319.888C499.403 320.011 498.64 319.445 498.517 318.626C498.038 315.414 497.747 312.21 497.646 309.069C497.619 308.241 498.269 307.548 499.097 307.521ZM406.547 317.37C406.897 316.619 407.79 316.295 408.541 316.645C411.784 318.16 415.045 319.522 418.336 320.788C419.109 321.085 419.494 321.953 419.197 322.726C418.9 323.499 418.032 323.885 417.258 323.588C413.915 322.301 410.589 320.912 407.272 319.364C406.521 319.013 406.197 318.121 406.547 317.37ZM599.965 317.598C600.556 318.179 600.564 319.129 599.983 319.719C598.982 320.737 597.953 321.752 596.898 322.769C595.584 324.037 594.167 325.24 592.666 326.379C592.006 326.88 591.066 326.751 590.565 326.092C590.064 325.432 590.193 324.491 590.852 323.99C592.268 322.915 593.593 321.789 594.816 320.61C595.854 319.608 596.864 318.611 597.844 317.615C598.425 317.025 599.375 317.017 599.965 317.598ZM426.489 325.324C426.753 324.538 427.603 324.115 428.388 324.379C431.746 325.506 435.138 326.59 438.584 327.69C439.373 327.942 439.808 328.786 439.556 329.576C439.304 330.365 438.46 330.8 437.671 330.548C434.229 329.449 430.816 328.358 427.434 327.223C426.649 326.959 426.226 326.109 426.489 325.324ZM501.522 326.184C502.323 325.971 503.144 326.448 503.356 327.249C504.149 330.237 505.111 333.182 506.238 336.035C506.542 336.806 506.165 337.677 505.394 337.982C504.624 338.286 503.752 337.908 503.448 337.138C502.276 334.172 501.278 331.115 500.457 328.018C500.244 327.217 500.721 326.396 501.522 326.184ZM583.95 330.183C584.327 330.92 584.036 331.824 583.299 332.202C580.102 333.84 576.717 335.287 573.233 336.547C572.454 336.829 571.594 336.426 571.312 335.647C571.03 334.868 571.433 334.008 572.212 333.726C575.592 332.503 578.86 331.106 581.93 329.532C582.668 329.154 583.572 329.446 583.95 330.183ZM446.922 331.956C447.184 331.17 448.033 330.745 448.819 331.007C450.508 331.57 452.21 332.149 453.925 332.749C455.534 333.312 457.158 333.834 458.797 334.318C459.591 334.553 460.045 335.387 459.811 336.181C459.576 336.976 458.742 337.43 457.947 337.195C456.263 336.698 454.592 336.161 452.934 335.581C451.235 334.986 449.548 334.412 447.87 333.853C447.084 333.591 446.66 332.742 446.922 331.956ZM466.982 337.95C467.147 337.138 467.939 336.613 468.751 336.778C472.092 337.457 475.476 338.009 478.892 338.456C479.713 338.564 480.292 339.317 480.184 340.139C480.077 340.96 479.324 341.539 478.502 341.431C475.025 340.975 471.571 340.412 468.153 339.718C467.342 339.553 466.817 338.762 466.982 337.95ZM563.866 337.907C564.068 338.71 563.58 339.525 562.776 339.727C559.201 340.624 555.606 341.345 552.078 341.894C551.259 342.022 550.493 341.462 550.365 340.643C550.238 339.824 550.798 339.058 551.617 338.93C555.057 338.395 558.562 337.692 562.046 336.817C562.849 336.615 563.664 337.103 563.866 337.907ZM487.533 340.886C487.596 340.06 488.316 339.441 489.142 339.504C492.564 339.764 496.005 339.944 499.453 340.068C500.28 340.098 500.928 340.793 500.898 341.621C500.868 342.449 500.173 343.096 499.345 343.066C495.864 342.941 492.383 342.759 488.915 342.495C488.089 342.432 487.47 341.712 487.533 340.886ZM542.631 341.479C542.679 342.306 542.047 343.015 541.22 343.063C539.342 343.172 537.513 343.226 535.748 343.226C534.03 343.226 532.301 343.232 530.563 343.24C529.734 343.245 529.059 342.576 529.055 341.748C529.051 340.92 529.719 340.245 530.548 340.24C532.289 340.232 534.023 340.226 535.748 340.226C537.452 340.226 539.224 340.173 541.048 340.068C541.875 340.02 542.584 340.652 542.631 341.479ZM508.283 341.775C508.29 340.947 508.968 340.282 509.796 340.289C513.261 340.321 516.719 340.318 520.162 340.302C520.991 340.298 521.665 340.967 521.669 341.795C521.673 342.624 521.004 343.298 520.176 343.302C516.726 343.318 513.252 343.321 509.769 343.289C508.94 343.282 508.275 342.604 508.283 341.775ZM508.134 343.797C508.857 343.392 509.771 343.651 510.175 344.374C511.697 347.099 513.393 349.663 515.258 352.013C515.773 352.662 515.665 353.606 515.016 354.121C514.367 354.636 513.424 354.527 512.909 353.878C510.934 351.39 509.149 348.689 507.556 345.838C507.152 345.114 507.411 344.201 508.134 343.797ZM744.864 345.139C745.162 345.912 744.776 346.78 744.003 347.078C741.234 348.144 738.486 349.246 735.764 350.387C735 350.707 734.121 350.347 733.8 349.583C733.48 348.819 733.84 347.94 734.604 347.62C737.355 346.467 740.13 345.355 742.925 344.278C743.698 343.98 744.566 344.366 744.864 345.139ZM728.375 351.961C728.721 352.714 728.39 353.604 727.637 353.95C726.291 354.568 724.954 355.196 723.625 355.836C721.995 356.621 720.354 357.388 718.702 358.138C717.948 358.481 717.059 358.147 716.716 357.393C716.374 356.638 716.707 355.749 717.462 355.407C719.093 354.666 720.714 353.908 722.323 353.133C723.669 352.485 725.024 351.849 726.386 351.223C727.139 350.878 728.029 351.208 728.375 351.961ZM519.473 358.749C520.005 358.114 520.951 358.03 521.586 358.562C522.754 359.54 523.967 360.442 525.225 361.261C526.602 362.157 527.983 363.021 529.368 363.851C530.079 364.277 530.31 365.198 529.884 365.909C529.458 366.619 528.536 366.85 527.826 366.424C526.408 365.574 524.996 364.692 523.588 363.775C522.226 362.887 520.916 361.913 519.661 360.862C519.025 360.331 518.941 359.384 519.473 358.749ZM709.543 360.464C709.853 361.232 709.482 362.106 708.714 362.416C705.363 363.769 701.976 365.055 698.561 366.277C697.781 366.556 696.922 366.149 696.643 365.369C696.364 364.589 696.77 363.731 697.55 363.452C700.93 362.243 704.278 360.971 707.591 359.634C708.359 359.324 709.233 359.696 709.543 360.464ZM689.248 367.856C689.497 368.646 689.059 369.489 688.269 369.738C684.821 370.827 681.35 371.853 677.86 372.82C677.062 373.042 676.235 372.574 676.014 371.775C675.793 370.977 676.261 370.15 677.059 369.929C680.516 368.972 683.953 367.955 687.366 366.877C688.156 366.628 688.998 367.066 689.248 367.856ZM535.91 369.215C536.28 368.473 537.181 368.172 537.922 368.542C540.864 370.009 543.828 371.341 546.814 372.543C547.583 372.852 547.955 373.726 547.646 374.494C547.337 375.263 546.463 375.635 545.694 375.326C542.633 374.094 539.597 372.73 536.583 371.227C535.842 370.857 535.54 369.956 535.91 369.215ZM668.461 373.73C668.655 374.536 668.159 375.346 667.354 375.54C663.836 376.389 660.305 377.179 656.766 377.913C655.955 378.082 655.161 377.56 654.993 376.749C654.825 375.938 655.346 375.144 656.157 374.976C659.665 374.248 663.165 373.464 666.651 372.624C667.456 372.43 668.266 372.925 668.461 373.73ZM554.122 376.802C554.368 376.011 555.209 375.57 556 375.817C559.112 376.787 562.252 377.629 565.42 378.351C566.228 378.535 566.733 379.339 566.55 380.147C566.366 380.954 565.562 381.46 564.754 381.276C561.511 380.537 558.296 379.675 555.107 378.681C554.316 378.434 553.875 377.593 554.122 376.802ZM647.33 378.216C647.473 379.032 646.928 379.81 646.112 379.953C642.543 380.58 638.971 381.153 635.402 381.672C634.582 381.791 633.821 381.223 633.702 380.404C633.583 379.584 634.151 378.822 634.97 378.703C638.511 378.188 642.053 377.62 645.593 376.998C646.409 376.855 647.186 377.4 647.33 378.216ZM625.965 381.416C626.061 382.239 625.471 382.983 624.648 383.079C622.85 383.289 621.053 383.485 619.259 383.668C617.601 383.838 615.951 383.99 614.308 384.123C613.482 384.19 612.759 383.575 612.692 382.749C612.625 381.924 613.24 381.2 614.066 381.133C615.687 381.001 617.316 380.852 618.954 380.684C620.734 380.502 622.517 380.307 624.301 380.099C625.124 380.004 625.869 380.593 625.965 381.416ZM573.305 381.42C573.429 380.6 574.193 380.037 575.012 380.16C578.216 380.644 581.451 381.016 584.719 381.283C585.545 381.35 586.16 382.075 586.092 382.9C586.025 383.726 585.3 384.341 584.475 384.273C581.142 384.001 577.839 383.621 574.564 383.127C573.745 383.003 573.182 382.239 573.305 381.42ZM605.829 383.15C605.857 383.978 605.208 384.672 604.381 384.7C601.032 384.813 597.714 384.84 594.427 384.774C593.598 384.757 592.94 384.072 592.957 383.244C592.974 382.416 593.659 381.758 594.487 381.775C597.718 381.84 600.981 381.813 604.279 381.701C605.107 381.673 605.801 382.322 605.829 383.15Z" fill="#EF4444"/>
<path fill-rule="evenodd" clip-rule="evenodd" d="M760 883.902C738.575 861.182 708.193 847 674.5 847C609.606 847 557 899.606 557 964.5C557 1029.39 609.606 1082 674.5 1082C708.193 1082 738.575 1067.82 760 1045.1V883.902Z" fill="#242424"/>
<path fill-rule="evenodd" clip-rule="evenodd" d="M363 1072.95V1056.47L339.229 1080H355.875L363 1072.95ZM313.551 1080L363 1031.05V1017.56L299.924 1080H313.551ZM259.6 1080L363 977.637V992.138L274.247 1080H259.6ZM233.923 1080L363 952.218V939.637L221.215 1080H233.923ZM195.538 1080L363 914.218V897.848L183 1076.04V1080H195.538ZM338.749 884H351.312L183 1050.62V1038.19L338.749 884ZM183 1012.77L313.072 884H298.542L183 998.383V1012.77ZM183 972.964L272.865 884H259.34L183 959.574V972.964ZM183 934.154L233.663 884H218.127L183 918.774V934.154ZM192.45 884L183 893.355V884H192.45Z" fill="#242424"/>
<defs>
<clipPath id="clip0_325_81">
<rect width="80" height="80" fill="white" transform="translate(221.503 189.544) rotate(-51.9999)"/>
</clipPath>
</defs>
</svg>
